<?xml version="1.0" standalone="no"?>
<!DOCTYPE svg PUBLIC "-//W3C//DTD SVG 20010904//EN"
 "http://www.w3.org/TR/2001/REC-SVG-20010904/DTD/svg10.dtd">
<svg version="1.0" xmlns="http://www.w3.org/2000/svg"
 width="1024.000000pt" height="1024.000000pt" viewBox="0 0 1024.000000 1024.000000"
 preserveAspectRatio="xMidYMid meet">

<g transform="translate(0.000000,1024.000000) scale(0.100000,-0.100000)"
fill="#000000" stroke="none">
<path d="M1809 9956 c-69 -47 -69 -49 -69 -575 l0 -470 -154 -3 c-168 -3 -182
-8 -230 -72 -21 -27 -21 -36 -21 -696 0 -659 0 -669 21 -697 11 -15 40 -38 64
-50 40 -21 59 -23 182 -23 l138 0 2 -3532 3 -3533 23 -33 c13 -18 38 -40 55
-50 30 -16 188 -17 2732 -17 2515 0 2702 1 2731 17 17 9 271 247 565 529 294
282 554 531 578 553 24 23 49 55 57 73 12 27 14 671 14 4255 0 4201 0 4222
-20 4263 -13 26 -34 49 -59 63 l-39 22 -3269 0 -3268 0 -36 -24z m5429 -283
l952 -6 0 -4064 0 -4063 -487 0 c-290 0 -502 -4 -523 -10 -20 -5 -51 -26 -70
-45 l-35 -36 -5 -467 -5 -467 -2507 -3 -2508 -2 0 3430 0 3430 1739 2 1740 3
28 21 c15 11 38 36 51 54 l22 33 0 655 c0 654 0 654 -22 693 -14 25 -37 46
-63 59 -41 20 -62 20 -1768 20 l-1727 0 0 385 0 385 2118 0 c1164 0 2546 -3
3070 -7z m-3881 -1067 c10 -13 61 -98 113 -189 52 -92 97 -167 100 -167 3 1
52 84 110 186 74 131 111 186 126 190 39 10 99 0 102 -17 2 -9 -56 -116 -127
-238 l-130 -221 135 -231 c74 -128 134 -239 132 -248 -2 -12 -17 -17 -58 -19
-30 -1 -60 1 -66 5 -6 5 -59 95 -118 201 -59 105 -111 192 -114 192 -4 -1 -56
-88 -115 -194 -59 -107 -115 -197 -123 -200 -28 -11 -101 -6 -112 7 -8 10 23
71 129 248 l139 236 -130 223 c-71 122 -130 228 -130 234 0 21 12 26 66 26 43
0 56 -4 71 -24z m-207 -36 l0 -50 -145 0 -145 0 0 -423 c0 -316 -3 -426 -12
-435 -13 -13 -86 -16 -105 -4 -10 6 -13 108 -15 433 l-3 424 -145 5 -145 5 -3
33 c-6 66 -27 62 363 62 l355 0 0 -50z m1545 0 l0 -45 -145 -5 -145 -5 -3
-424 c-2 -325 -5 -427 -15 -433 -19 -12 -92 -9 -105 4 -9 9 -12 119 -12 435
l0 423 -144 0 -144 0 -4 25 c-3 14 -3 36 0 50 l4 25 357 -2 356 -3 0 -45z"/>
<path d="M3667 6572 c-29 -30 -36 -86 -17 -123 28 -52 -74 -49 1880 -49 1954
0 1852 -3 1880 49 20 39 12 91 -19 122 l-29 29 -1834 0 -1834 0 -27 -28z"/>
<path d="M2756 5249 c-55 -43 -54 -116 1 -159 26 -20 35 -20 2315 -20 l2290 0
29 29 c41 41 41 101 0 142 l-29 29 -2290 0 -2289 0 -27 -21z"/>
<path d="M2770 3827 c-33 -16 -63 -77 -54 -111 3 -14 17 -37 31 -51 l26 -25
2294 0 2295 0 29 29 c48 49 38 125 -21 156 -26 13 -294 15 -2302 15 -1791 0
-2278 -3 -2298 -13z"/>
<path d="M2772 2395 c-71 -31 -76 -135 -8 -176 30 -19 81 -19 2304 -19 1655 0
2279 3 2295 11 37 19 57 52 57 95 0 32 -6 46 -31 70 l-30 29 -2277 2 c-1957 2
-2282 0 -2310 -12z"/>
</g>
</svg>
