<?xml version="1.0" standalone="no"?>
<!DOCTYPE svg PUBLIC "-//W3C//DTD SVG 20010904//EN"
 "http://www.w3.org/TR/2001/REC-SVG-20010904/DTD/svg10.dtd">
<svg version="1.0" xmlns="http://www.w3.org/2000/svg"
 width="1024.000000pt" height="1024.000000pt" viewBox="0 0 1024.000000 1024.000000"
 preserveAspectRatio="xMidYMid meet">

<g transform="translate(0.000000,1024.000000) scale(0.100000,-0.100000)"
fill="#000000" stroke="none">
<path d="M1423 10090 c-151 -13 -239 -54 -280 -133 -44 -85 -42 77 -43 -4830
0 -3334 3 -4668 11 -4719 14 -93 38 -146 83 -185 48 -43 116 -61 266 -74 83
-7 1341 -9 3760 -6 3888 3 3689 1 3791 53 83 42 113 109 129 292 7 79 10 1326
8 3867 -3 3665 -3 3751 -22 3790 -27 57 -1864 1894 -1926 1927 l-45 23 -2820
1 c-1551 1 -2861 -2 -2912 -6z m5371 -480 c14 -5 33 -21 43 -37 17 -25 18 -77
24 -768 4 -519 10 -753 18 -785 27 -102 76 -154 175 -187 45 -15 138 -17 796
-22 696 -6 748 -7 773 -24 16 -10 32 -29 38 -43 6 -16 8 -807 7 -2150 l-3
-2123 -23 -23 -23 -23 -3472 -3 c-1909 -1 -3487 0 -3505 3 -20 4 -39 16 -50
33 -16 25 -17 192 -17 3052 0 1664 4 3038 8 3053 17 60 -160 56 2629 57 1602
0 2566 -4 2582 -10z m-2644 -7030 l0 -190 -265 0 -265 0 -2 -797 -3 -798 -225
0 -225 0 -3 798 -2 797 -260 0 -260 0 0 190 0 190 755 0 755 0 0 -190z m3458
-2 l2 -188 -270 0 -270 0 0 -800 0 -800 -225 0 -225 0 0 800 0 800 -265 0
-265 0 0 183 c0 101 3 187 7 190 3 4 344 6 757 5 l751 -3 3 -187z m-2649 -94
c72 -151 144 -304 158 -340 15 -35 28 -63 29 -61 2 1 25 58 53 126 28 67 94
219 148 337 l98 214 258 0 259 0 -20 -32 c-124 -202 -532 -924 -528 -935 3 -7
129 -226 279 -485 151 -260 279 -483 286 -495 l12 -23 -258 0 -258 0 -179 356
-179 356 -34 -83 c-18 -46 -89 -205 -157 -354 l-123 -270 -257 -3 c-141 -1
-256 -1 -256 2 0 2 128 227 284 500 l284 497 -235 417 c-130 229 -253 447
-274 485 l-38 67 258 0 258 0 132 -276z"/>
<path d="M2410 8085 l0 -155 1355 0 1355 0 0 155 0 155 -1355 0 -1355 0 0
-155z"/>
<path d="M2410 7100 l0 -160 2715 0 2715 0 0 160 0 160 -2715 0 -2715 0 0
-160z"/>
<path d="M2410 6110 l0 -160 2715 0 2715 0 0 160 0 160 -2715 0 -2715 0 0
-160z"/>
<path d="M2410 5120 l0 -160 2715 0 2715 0 0 160 0 160 -2715 0 -2715 0 0
-160z"/>
<path d="M2410 4130 l0 -160 2715 0 2715 0 0 160 0 160 -2715 0 -2715 0 0
-160z"/>
</g>
</svg>
