<?xml version="1.0" standalone="no"?>
<!DOCTYPE svg PUBLIC "-//W3C//DTD SVG 20010904//EN"
 "http://www.w3.org/TR/2001/REC-SVG-20010904/DTD/svg10.dtd">
<svg version="1.0" xmlns="http://www.w3.org/2000/svg"
 width="512.000000pt" height="512.000000pt" viewBox="0 0 512.000000 512.000000"
 preserveAspectRatio="xMidYMid meet">

<g transform="translate(0.000000,512.000000) scale(0.100000,-0.100000)"
fill="#000000" stroke="none">
<path d="M2630 4864 c-122 -11 -278 -38 -395 -68 -372 -96 -726 -289 -993
-543 -70 -67 -82 -83 -82 -110 0 -41 30 -73 70 -73 22 0 47 16 102 66 361 328
766 514 1236 569 542 64 1088 -84 1530 -414 751 -560 1055 -1528 760 -2416
-239 -720 -872 -1282 -1612 -1430 -414 -82 -838 -47 -1215 102 -143 56 -205
87 -335 167 -594 364 -971 966 -1036 1651 -19 207 -43 212 218 -48 197 -197
231 -227 258 -227 39 0 74 36 74 75 0 25 -45 74 -297 327 -164 164 -302 298
-308 298 -6 0 -144 -134 -308 -298 -318 -320 -319 -321 -276 -376 14 -18 30
-26 52 -26 28 0 55 23 227 195 107 107 198 195 202 195 5 0 8 -24 8 -54 0
-158 63 -466 135 -661 112 -304 306 -607 535 -835 353 -354 802 -579 1305
-656 180 -28 504 -25 684 5 654 111 1197 460 1563 1005 187 279 311 602 364
946 25 160 25 500 0 660 -102 659 -458 1222 -1006 1589 -371 248 -782 377
-1230 386 -102 1 -205 1 -230 -1z"/>
</g>
</svg>
