<svg width="171" height="40" viewBox="0 0 171 40" fill="none" xmlns="http://www.w3.org/2000/svg">
<path d="M36.2998 32.3241V13.6644H39.5296V16.672C39.5296 16.8158 39.595 16.8812 39.7388 16.8812C39.9219 16.8812 39.9873 16.8158 40.0657 16.672C41.1118 14.5928 42.7594 13.1152 46.3423 13.1152C50.8274 13.1152 53.5211 15.8089 53.5211 20.6471V32.3111H50.2913V21.1832C50.2913 17.7704 48.4999 15.9789 45.2701 15.9789C41.6872 15.9789 39.5296 18.1365 39.5296 22.6216V32.3111H36.2998V32.3241Z" fill="#FFFEF7"/>
<path d="M72.0107 19.5879H68.7025C68.454 17.0381 66.728 15.8874 63.7074 15.8874C60.6868 15.8874 59.4315 17.0381 59.4315 18.5811C59.4315 20.1241 60.5429 20.6602 63.0928 21.144L65.7603 21.6409C69.1732 22.2816 72.1546 23.4062 72.1546 27.0937C72.1546 30.7942 69.317 32.8603 64.505 32.8603C59.693 32.8603 56.084 30.7811 55.7832 26.3222H59.0653C59.3138 28.7936 61.3798 30.0881 64.505 30.0881C67.6302 30.0881 68.9248 28.8851 68.9248 27.2637C68.9248 25.6422 67.6302 25.093 65.0542 24.6092L62.3997 24.1123C58.7515 23.4323 56.2278 22.1901 56.2278 18.6072C56.2278 15.0113 59.3138 13.1152 63.7335 13.1152C68.1271 13.1152 71.6446 15.0244 72.0107 19.5879Z" fill="#FFFEF7"/>
<path d="M74.5605 32.3244V6.48584H77.7904V16.6853C77.7904 16.8291 77.8557 16.8945 77.9996 16.8945C78.1826 16.8945 78.248 16.8291 78.3265 16.6853C79.3726 14.6061 81.0202 13.1285 84.603 13.1285C89.0882 13.1285 91.7819 15.8222 91.7819 20.6604V32.3244H88.5521V21.1965C88.5521 17.7837 86.7606 15.9922 83.5308 15.9922C79.9349 15.9922 77.7904 18.1498 77.7904 22.6349V32.3244H74.5605Z" fill="#FFFEF7"/>
<path d="M100.32 16.5282V13.6515H104.805V12.3962C104.805 8.39485 106.741 6.47266 110.729 6.47266H114.312V9.34941H112.873C110.363 9.34941 109.107 9.16635 108.349 9.16635C108.166 9.16635 108.061 9.20558 107.957 9.31019C107.852 9.4148 107.813 9.51941 107.813 9.70247C107.852 10.4217 108.022 11.3239 108.022 13.573V13.6515H113.41V16.5282H108.022V32.3243H104.792V16.5282H100.32Z" fill="#FFFEF7"/>
<path d="M113.423 16.5284V13.6516H117.725V8.63037H120.955V13.6647H126.342V16.5415H120.955V24.2564C120.955 27.4862 120.772 28.4146 120.772 29.1338C120.772 29.3169 120.811 29.4215 120.916 29.5261C121.02 29.6307 121.125 29.6699 121.308 29.6699C121.988 29.6699 122.929 29.4607 125.793 29.4607H126.329V32.3375H123.099C119.451 32.3375 117.712 30.5983 117.712 26.9501V16.5415H113.423V16.5284Z" fill="#FFFEF7"/>
<path d="M32.7425 13.6514L29.5127 16.8812V32.3241H32.7425V13.6514Z" fill="#FFFEF7"/>
<path d="M32.7164 8.65625H29.5127V10.4477V13.6513L32.7164 10.4477V8.65625Z" fill="#FFFEF7"/>
<path d="M148.31 24.714V36.051H151.566V21.458L148.31 24.714Z" fill="#FFFEF7"/>
<path d="M154.155 0V14.593L157.424 11.337V0H154.155Z" fill="#FFFEF7"/>
<path d="M146.179 13.4683H134.842V16.7242H149.435L146.179 13.4683Z" fill="#FFFEF7"/>
<path d="M156.3 19.3267L159.556 22.5826H170.893V19.3267H156.3Z" fill="#FFFEF7"/>
<path d="M151.357 10.0689L143.341 2.05322L141.04 4.35463L151.357 14.6848V10.0689Z" fill="#FFFEF7"/>
<path d="M154.377 25.9821L168.395 39.9998L170.709 37.6983L154.377 21.3662V25.9821Z" fill="#FFFEF7"/>
<path d="M144.91 19.5356L136.895 27.5513L139.196 29.8527L149.526 19.5356H144.91Z" fill="#FFFEF7"/>
<path d="M156.208 16.5153H160.824L168.84 8.49965L166.525 6.19824L156.208 16.5153Z" fill="#FFFEF7"/>
<path d="M98.4378 13.6514L95.208 16.8943V32.3372H98.4378V13.6514Z" fill="#FFFEF7"/>
<path d="M98.4117 10.4609V8.66943H95.208V10.4609V13.6645L98.4117 10.4609Z" fill="#FFFEF7"/>
<path d="M26.7015 19.4051C26.7015 11.324 21.2096 5.94971 13.3508 5.94971C5.49199 5.94971 0 11.3371 0 19.4051C0 27.4731 5.49199 32.8605 13.3508 32.8605C15.4168 32.8605 17.3129 32.4943 18.9997 31.7882L24.2694 37.0579L26.5577 34.7696L21.8895 30.1014C24.9101 27.7608 26.7015 24.021 26.7015 19.4051ZM13.3508 29.8137C7.42727 29.8137 3.47826 25.9955 3.47826 19.4051C3.47826 12.8147 7.42727 8.99645 13.3508 8.99645C18.9212 8.99645 23.2233 12.8147 23.2233 19.4051C23.2233 23.171 21.8111 26.0347 19.562 27.8L13.3508 21.5888V26.1655L16.5414 29.3561C15.5606 29.6568 14.4753 29.8137 13.3508 29.8137Z" fill="#FFFEF7"/>
</svg>
